<svg width="53" height="29" viewBox="0 0 53 29" fill="none" xmlns="http://www.w3.org/2000/svg">
<path d="M6.416 12.192V10.752H4.96V3.36H6.416V1.904H10.928V3.36H12.4V10.752H10.928V12.192H6.416ZM6.576 10.592H10.768V3.52H6.576V10.592ZM14.335 12.192V6.256H15.791V4.8H20.303V6.256H21.775V7.84H20.143V6.4H15.951V12.192H14.335ZM23.71 12.192V4.8H25.326V12.192H23.71ZM23.71 3.52V1.904H25.326V3.52H23.71ZM28.4004 15.088V13.648H26.9444V12.048H28.5604V13.488H32.7684V10.752H28.4004V9.296H26.9444V6.256H28.4004V4.8H32.9284V6.256H34.3844V13.648H32.9284V15.088H28.4004ZM28.5604 9.136H32.7684V6.4H28.5604V9.136ZM36.3194 12.192V4.8H37.9354V12.192H36.3194ZM36.3194 3.52V1.904H37.9354V3.52H36.3194ZM39.5538 12.192V4.8H45.5218V6.256H46.9938V12.192H45.3618V6.4H41.1698V12.192H39.5538ZM4.96 25.192V14.904H10.928V16.36H12.4V17.96H10.768V16.52H6.576V19.256H9.488V20.84H6.576V25.192H4.96ZM14.1973 25.192V23.752H12.7413V19.256H14.1973V17.8H18.7093V19.256H20.1813V23.752H18.7093V25.192H14.1973ZM14.3573 23.592H18.5493V19.4H14.3573V23.592ZM22.1163 25.192V19.256H23.5723V17.8H28.0843V19.256H29.5563V20.84H27.9243V19.4H23.7323V25.192H22.1163ZM32.6348 28.088V26.648H31.1788V25.048H32.7948V26.488H37.0028V23.752H32.6348V22.296H31.1788V19.256H32.6348V17.8H37.1628V19.256H38.6188V26.648H37.1628V28.088H32.6348ZM32.7948 22.136H37.0028V19.4H32.7948V22.136ZM41.5254 25.192V23.752H40.0694V19.256H41.5254V17.8H46.0374V19.256H47.5094V20.84H45.8774V19.4H41.6854V20.68H44.5974V22.296H41.6854V23.592H45.8774V22.12H47.5094V23.736H46.0374V25.192H41.5254Z" fill="white"/>
</svg>
